# xmcd
#
# Track frame offsets:
#	150
#	14249
#	29949
#	45122
#	60198
#	78675
#	94956
#	108426
#	129321
#	148736
#	163401
#
# Disc length: 2465 seconds
#
# Revision: 1
# Processed by: cddbd v1.5.2PL0 Copyright (c) Steve Scherf et al.
# Submitted via: audiograbber 1.83.01
#
DISCID=9a099f0b
DTITLE=Wenche - Heart and Soul
DYEAR=2016
DGENRE=Country
TTITLE0=Don't You Mess With A Countrygirl
TTITLE1=Footsteps
TTITLE2=Owner Of A Broken Heart
TTITLE3=Dog Tag
TTITLE4=Times Of Change
TTITLE5=Coming Home
TTITLE6=Rust
TTITLE7=The Letter
TTITLE8=Will You
TTITLE9=You're My Man
TTITLE10=Turn Around
EXTD=
EXTT0=
EXTT1=
EXTT2=
EXTT3=
EXTT4=
EXTT5=
EXTT6=
EXTT7=
EXTT8=
EXTT9=
EXTT10=
PLAYORDER=
